<svg id="Capa_1" enable-background="new 0 0 512.002 512.002" height="512" viewBox="0 0 512.002 512.002" width="512" xmlns="http://www.w3.org/2000/svg"><g><g id="XMLID_8_"><g><g><path d="m107.912 48.34c7 15.01.51 32.86-14.51 39.86-15.02 7.01-32.87.51-39.87-14.51-7-15.01-.5-32.86 14.51-39.87 15.02-7 32.87-.5 39.87 14.52z" fill="#ff7b79"/></g><g><path d="m443.962 104.02c15.01 7 21.51 24.85 14.51 39.87s-24.85 21.51-39.87 14.51-21.51-24.85-14.51-39.87c7-15.01 24.85-21.51 39.87-14.51z" fill="#ff7b79"/></g><g><path d="m118.762 142.58 108.75-50.71 44.86 96.18-88.02 188.76-72.92 34-101.43-217.51z" fill="#eefaff"/></g><g><path d="m393.252 212.78 108.75 50.71-101.43 217.52-217.51-101.43 101.43-217.52z" fill="#ffda8f"/></g></g><g><path d="m511.399 260.07c-.906-2.492-2.767-4.522-5.17-5.644l-99.691-46.488 17.443-37.41c2.411.447 4.834.679 7.242.679 15.076 0 29.539-8.556 36.314-23.094 9.316-19.99.637-43.837-19.35-53.157-19.992-9.317-43.837-.639-53.157 19.347-.001.001-.001.002-.002.003-7.859 16.865-2.914 36.469 10.82 47.784l-17.436 37.396-99.693-46.489c-2.403-1.122-5.154-1.24-7.646-.335-2.492.907-4.522 2.768-5.643 5.171l-3.058 6.559-35.797-76.749c-2.334-5.006-8.283-7.167-13.289-4.837l-99.689 46.488-17.437-37.396c5.473-4.49 9.668-10.377 12.152-17.205 3.653-10.037 3.179-20.896-1.335-30.576-4.514-9.687-12.529-17.034-22.57-20.69-10.04-3.658-20.902-3.185-30.596 1.333-19.982 9.332-28.659 33.178-19.343 53.155 4.515 9.687 12.53 17.033 22.571 20.688 4.464 1.624 9.09 2.433 13.703 2.433 2.443 0 4.88-.241 7.288-.693l17.44 37.404-99.694 46.491c-5.005 2.334-7.17 8.283-4.836 13.289l101.43 217.51c1.697 3.638 5.303 5.775 9.069 5.775 1.415 0 2.853-.302 4.22-.938l65.079-30.344 56.215 26.214c5.005 2.331 10.955.167 13.29-4.837 2.334-5.006.168-10.955-4.837-13.29l-49.054-22.874 92.979-199.394 90.631 42.263-21.131 45.321c-2.335 5.005-.169 10.955 4.836 13.289 1.367.638 2.805.939 4.22.939 3.766 0 7.373-2.138 9.069-5.775l21.131-45.321 90.627 42.262-92.978 199.395-68.769-32.069c-5.006-2.331-10.955-.167-13.29 4.837-2.334 5.006-.168 10.955 4.837 13.29l77.832 36.295c5.004 2.332 10.956.167 13.29-4.837l101.43-217.521c1.12-2.405 1.24-5.155.333-7.647zm-98.242-137.316c4.661-9.991 16.581-14.328 26.579-9.671 9.992 4.66 14.332 16.586 9.673 26.583-4.658 9.993-16.582 14.329-26.582 9.671-9.994-4.657-14.331-16.582-9.67-26.583zm-339.277-42.945c-5.02-1.827-9.027-5.501-11.285-10.346-4.659-9.99-.317-21.915 9.671-26.579 2.689-1.254 5.559-1.884 8.439-1.884 2.308 0 4.624.405 6.857 1.218 5.021 1.829 9.028 5.503 11.286 10.346 0 .001 0 .002.001.003 2.257 4.84 2.495 10.269.668 15.287-1.827 5.019-5.499 9.025-10.345 11.284-4.841 2.259-10.272 2.498-15.292.671zm102.948 289.476-60.558 28.236-92.979-199.383 90.631-42.263 21.127 45.311c1.696 3.639 5.303 5.776 9.07 5.776 1.415 0 2.852-.302 4.219-.938 5.006-2.333 7.172-8.283 4.838-13.289l-21.127-45.313 90.628-42.262 38.663 82.893z"/><path d="m371.826 410.112c3.767 0 7.373-2.138 9.07-5.775 2.334-5.006.168-10.956-4.837-13.29l-108.771-50.72c-5.007-2.331-10.955-.167-13.29 4.837-2.334 5.006-.168 10.956 4.837 13.29l108.771 50.72c1.367.636 2.805.938 4.22.938z"/><path d="m392.955 354.803c1.367.638 2.805.939 4.22.939 3.766 0 7.373-2.138 9.069-5.775 2.335-5.006.169-10.955-4.836-13.289l-108.76-50.72c-5.007-2.336-10.956-.169-13.289 4.836-2.335 5.006-.169 10.955 4.836 13.289z"/></g></g><g><circle cx="282.002" cy="425.607" r="10"/></g></g></svg>