<?xml version="1.0" standalone="no"?>
<!DOCTYPE svg PUBLIC "-//W3C//DTD SVG 20010904//EN"
 "http://www.w3.org/TR/2001/REC-SVG-20010904/DTD/svg10.dtd">
<svg version="1.0" xmlns="http://www.w3.org/2000/svg"
 width="360.000000pt" height="360.000000pt" viewBox="0 0 360.000000 360.000000"
 preserveAspectRatio="xMidYMid meet">
<metadata>
Created by potrace 1.16, written by Peter Selinger 2001-2019
</metadata>
<g transform="translate(0.000000,360.000000) scale(0.100000,-0.100000)"
fill="#000000" stroke="none">
<path d="M2280 3121 c14 -5 50 -14 80 -21 30 -6 102 -34 159 -62 85 -41 116
-62 175 -121 39 -40 79 -90 89 -113 l18 -40 -56 -83 -57 -82 -33 49 c-90 133
-257 233 -483 289 l-34 8 56 82 c31 45 56 86 56 90 0 12 -44 -43 -91 -114 -24
-37 -49 -64 -62 -66 -17 -3 -15 -5 8 -6 109 -6 284 -76 397 -158 137 -99 234
-278 178 -328 -19 -18 -20 -17 -20 9 0 61 -75 176 -158 241 -90 70 -308 157
-386 154 -12 0 17 -11 64 -23 47 -13 110 -33 140 -45 164 -67 293 -195 322
-320 10 -47 9 -52 -18 -95 -16 -25 -32 -46 -35 -46 -3 0 -13 18 -23 41 -29 64
-130 165 -220 218 -130 76 -309 142 -381 140 -11 0 12 -8 50 -18 100 -25 218
-74 305 -125 115 -67 250 -219 250 -281 0 -16 -51 -115 -60 -115 -3 0 -18 20
-33 45 -87 137 -398 321 -591 350 -36 6 -43 10 -38 24 13 29 66 116 77 123 5
4 7 8 2 8 -4 0 0 11 9 25 20 30 59 33 169 10 259 -54 440 -185 511 -370 7 -19
8 -19 11 2 6 35 -45 121 -112 188 -102 103 -294 185 -470 201 -41 4 -75 10
-75 14 0 4 17 31 38 61 52 74 59 91 22 49 -46 -52 -134 -186 -181 -275 -42
-82 -53 -99 -314 -530 -207 -341 -405 -668 -471 -780 -30 -49 -56 -103 -59
-120 -2 -16 -12 -129 -20 -250 -9 -121 -23 -300 -31 -398 -7 -98 -14 -180 -14
-183 0 -13 40 8 242 129 123 73 290 173 371 222 118 70 152 95 168 124 10 20
49 86 87 146 202 330 372 609 551 907 74 123 142 232 152 243 9 11 44 70 79
130 34 61 76 127 93 148 28 36 29 42 24 101 l-6 63 55 83 c29 46 54 93 54 104
0 63 -142 211 -258 270 -75 37 -182 73 -242 79 -35 4 -46 3 -30 -2z m-361
-679 l78 -37 -154 -245 c-85 -135 -168 -267 -186 -295 -18 -27 -41 -64 -52
-82 -11 -18 -60 -96 -109 -175 -80 -128 -118 -187 -231 -363 -17 -27 -35 -58
-38 -68 -7 -20 -46 -37 -84 -37 -34 0 -77 27 -98 62 l-17 29 63 102 c81 133
570 940 655 1080 54 91 46 89 173 29z m169 -85 c95 -56 132 -81 132 -92 0 -6
-32 -64 -71 -130 -38 -66 -73 -125 -77 -132 -11 -18 -429 -677 -490 -773 -31
-47 -70 -108 -88 -135 -18 -28 -40 -67 -51 -88 -15 -31 -23 -37 -50 -37 -46 0
-115 68 -137 136 l-17 52 57 88 c31 49 66 105 79 124 12 19 60 96 107 170 47
74 144 227 215 340 71 113 171 273 223 357 52 84 99 152 103 153 5 0 34 -15
65 -33z m-924 -1235 l64 6 17 -45 c38 -98 97 -139 191 -130 l62 6 6 -41 c8
-49 59 -105 105 -114 30 -6 29 -8 -61 -63 -51 -31 -142 -85 -201 -119 l-108
-64 -36 37 c-41 42 -144 95 -185 95 -15 0 -29 3 -31 8 -2 4 4 106 14 227 10
121 18 232 18 246 1 27 1 27 41 -14 40 -40 40 -40 104 -35z"/>
</g>
</svg>
